<?xml version="1.0" encoding="utf-8"?>
<!-- Generator: Adobe Illustrator 19.0.0, SVG Export Plug-In . SVG Version: 6.00 Build 0)  -->
<svg version="1.1" xmlns="http://www.w3.org/2000/svg" xmlns:xlink="http://www.w3.org/1999/xlink" x="0px" y="0px"
	 viewBox="0 0 119.4 79.4" style="enable-background:new 0 0 119.4 79.4;" xml:space="preserve">
<style type="text/css">
	.st0{fill:#F9FF00;stroke:#000000;stroke-miterlimit:10;}
	.st1{fill:#002AF9;stroke:#000000;stroke-miterlimit:10;}
	.st2{fill:#EA0606;stroke:#000000;stroke-miterlimit:10;}
</style>
<g id="inner">
	<path id="XMLID_60_" class="st0" d="M79.4,39.7c0-14.6-7.9-27.4-19.7-34.3C47.9,12.3,40,25.1,40,39.7S47.9,67.1,59.7,74
		C71.5,67.1,79.4,54.4,79.4,39.7z"/>
</g>
<g id="right">
	<path id="XMLID_59_" class="st1" d="M79.7,0c-7.3,0-14.1,2-20,5.4c11.8,6.9,19.7,19.7,19.7,34.3S71.5,67.1,59.7,74
		c5.9,3.4,12.7,5.4,20,5.4c21.9,0,39.7-17.8,39.7-39.7S101.6,0,79.7,0z"/>
</g>
<g id="left">
	<path id="XMLID_55_" class="st2" d="M40,39.7c0-14.6,7.9-27.4,19.7-34.3C53.8,2,47,0,39.7,0C17.8,0,0,17.8,0,39.7
		s17.8,39.7,39.7,39.7c7.3,0,14.1-2,20-5.4C47.9,67.1,40,54.4,40,39.7z"/>
</g>
</svg>
